<svg width="27" height="37" viewBox="0 0 27 37" fill="none" xmlns="http://www.w3.org/2000/svg">
<path d="M12.7005 1.16901C12.6952 1.83598 12.6657 2.74063 12.6337 3.41476C12.6237 3.63269 12.5875 3.52206 12.5791 3.66738C12.5628 3.95753 12.5797 4.22719 12.5615 4.50923C12.5553 4.60309 12.497 4.48579 12.4918 4.58462C12.471 4.99792 12.474 5.37879 12.4716 5.79137C12.4708 5.92089 12.4694 6.05457 12.4664 6.19348C12.4071 8.90888 12.396 11.5803 12.3641 14.3284C12.3538 15.2352 12.2964 16.3375 12.3136 17.2745C12.3156 17.3839 12.3676 17.319 12.3717 17.3398C12.4346 17.6665 12.3312 17.5567 12.3158 17.7703C12.2549 18.6145 12.2404 19.556 12.2485 20.3706C12.2521 20.7161 12.3597 20.3711 12.297 20.7182C12.2927 20.7426 12.2393 20.6532 12.232 20.7488C12.2155 20.9669 12.2184 21.3701 12.2109 21.54C12.1962 21.8638 12.1958 21.9133 12.1888 22.2189C12.1786 22.6365 12.1395 23.1313 12.1394 23.5757C12.1395 23.6721 12.1992 23.5463 12.2044 23.6999C12.2096 23.8544 12.1925 24.2515 12.1745 24.3905C12.1567 24.5263 12.1145 24.4667 12.1036 24.4904C12.0118 24.6816 12.1122 25.1565 12.1126 25.2147C12.1168 26.059 12.0474 26.8101 11.9746 27.5762C11.9519 27.8156 11.9305 28.0318 11.9076 28.2744C11.8271 29.0503 11.7724 29.8854 11.5022 30.6594C11.4018 30.8815 11.3463 31.148 10.9637 31.3385C10.7562 31.4248 10.5282 31.3528 10.4069 31.275C10.2784 31.1962 10.1922 31.1089 10.1121 31.0213C9.80927 30.6718 9.61802 30.3159 9.39684 29.9405C9.35102 29.8608 9.3469 29.9875 9.29059 29.8893C9.2228 29.7709 9.15591 29.6513 9.08964 29.5315C8.58739 28.6236 8.10836 27.7104 7.66288 26.7739C7.61192 26.6666 7.73407 26.7751 7.68635 26.6666C7.39604 26.0107 6.98395 24.9483 6.56914 24.6808C6.35756 24.2362 6.11132 23.7122 5.96486 23.2924C5.87309 23.0271 6.04994 23.2486 5.8741 22.9453C5.83492 22.8775 5.82886 22.9928 5.77406 22.8896C5.54395 22.4564 5.33358 21.9671 5.10298 21.5362C5.05681 21.4505 5.02303 21.4955 5.00343 21.4744C4.83695 21.2865 4.78437 20.8832 4.75734 20.8024C4.54964 20.1883 4.33165 19.7603 4.08849 19.2108C4.0327 19.0847 4.03881 19.2618 3.98202 19.1394C3.68864 18.5084 3.40212 17.8417 3.11526 17.2438C3.05014 17.11 3.16545 17.2031 3.13651 17.1374C3.11862 17.0974 3.10082 17.0634 3.08311 17.0339C2.96794 16.8419 2.85813 16.8026 2.74214 16.5694C2.71345 16.5125 2.77345 16.5181 2.77201 16.5054C2.74911 16.3052 2.56277 16.2366 2.53565 16.2007C2.28132 15.8708 2.13103 15.5732 1.90062 15.4243C1.77164 15.356 1.67088 15.3105 1.5316 15.2908C1.48178 15.2867 1.57777 15.3581 1.45041 15.349C1.33557 15.3567 1.33861 15.3599 1.2983 15.433C1.26426 15.5074 1.25326 15.6611 1.26341 15.7985C1.28403 16.0948 1.36164 16.413 1.44893 16.7231C1.62864 17.349 1.8629 17.9712 2.0938 18.5687C2.16718 18.7564 2.06754 18.643 2.06733 18.6568C2.07045 18.8862 2.23051 18.9513 2.26192 19.0103C2.5034 19.4682 2.61904 19.9416 2.90026 20.1957C3.81155 22.1756 4.92756 24.0439 5.88086 25.9951C5.89304 26.0197 5.81785 26.0058 5.84234 26.0546C6.14106 26.65 6.15326 26.4859 6.47021 26.8179C6.54657 26.8955 6.59975 27.2603 6.60475 27.2889C6.626 27.3995 6.49547 27.3469 6.50704 27.3813C6.52455 27.4319 6.54578 27.4669 6.57014 27.4925C6.68393 27.6116 6.86615 27.541 7.0362 27.8174C7.04247 27.8284 6.9693 27.8111 6.9827 27.8428C7.02575 27.9438 7.09553 28.0148 7.13664 28.1129C7.22789 28.3325 7.15754 28.4824 7.42599 28.7347C7.46068 28.7665 7.55647 28.6184 7.75295 28.9177C7.83081 29.0383 8.1992 29.5541 8.29582 29.704C8.3913 29.8541 8.27714 29.7863 8.28268 29.7979C8.5089 30.2274 8.37812 30.0964 8.43797 30.3522C8.49859 30.6073 8.656 30.4073 8.73641 30.4697C8.81675 30.5323 8.98194 30.8484 9.01824 30.9293C9.05453 31.0105 8.96259 30.9444 9.00006 31.0128C9.24983 31.4644 9.23208 31.117 9.36516 31.2275C9.67805 31.4852 9.72403 31.8418 9.93214 32.1374C9.98944 32.2186 9.97231 32.1294 10.0296 32.1963C10.253 32.4576 10.3402 32.6599 10.6242 32.9334C10.6725 32.9807 10.9562 33.1607 11.0217 33.3703C11.0311 33.4004 10.9427 33.3628 11.0285 33.4857C11.154 33.6661 11.3983 33.9834 11.5596 34.1569C11.6787 34.2849 11.6084 34.0809 11.7311 34.2676C11.7856 34.3505 11.6371 34.2382 11.7403 34.3891C11.8199 34.5047 12.0045 34.732 12.1412 34.8951L12.1216 34.8794C12.1861 34.9126 12.2425 34.9412 12.2825 34.9615C12.4411 35.0417 12.3807 34.9467 12.3952 34.9499C12.4825 34.9703 12.798 35.1026 12.8247 35.1165C13.306 35.3623 13.768 35.6128 14.2234 35.8628L14.0221 35.9174C14.5372 35.1418 15.0466 34.3651 15.5185 33.5388C15.5766 33.4371 15.4852 33.4733 15.4936 33.4575C15.6773 33.1016 15.6515 33.4544 15.8395 33.2433C15.7139 33.2171 15.8205 33.0815 15.9492 32.8387C16.0128 32.7188 15.9348 32.7582 15.9369 32.7452C15.981 32.5311 16.1265 32.4659 16.162 32.4428C16.2891 32.3641 16.2937 32.195 16.3778 32.1434C16.4629 32.0896 16.4168 32.3023 16.5519 32.071C16.5528 31.9837 16.3534 32.0991 16.4415 31.9129C16.7737 31.212 17.5668 30.0176 17.8812 29.4836C18.1939 28.9542 18.2858 28.775 18.4764 28.4697C18.8208 27.9168 18.6287 28.0859 18.7944 27.712C18.9569 27.3429 19.0424 27.6141 19.1095 27.5854C19.1761 27.5575 19.1665 27.4807 19.2226 27.4304C19.2786 27.3801 19.23 27.5295 19.3196 27.3877C19.411 27.2428 19.5597 26.8119 19.5487 26.7355C19.5228 26.5786 19.3345 26.7054 19.578 26.34C19.5921 26.319 19.6002 26.4169 19.6517 26.335C20.0618 25.6788 20.447 24.9783 20.8452 24.3185C20.9001 24.2277 20.9084 24.3399 20.9409 24.2873C21.0074 24.1801 21.0534 24.0992 21.0848 24.0361C21.2156 23.7738 21.097 23.8169 21.1514 23.5248C21.2482 23.6634 21.4152 23.5474 21.655 23.1124C21.7966 22.8563 21.7107 22.8756 21.7645 22.6826C21.7806 22.6245 21.9216 22.4644 21.9125 22.4172C21.8849 22.259 21.6871 22.3786 21.9753 21.9586C21.9882 21.9402 22.0015 22.0294 22.0424 21.9639C22.3024 21.5496 22.2432 21.4389 22.497 20.9752C22.6975 20.6089 23.1351 19.9992 23.3937 19.6007C23.5325 19.6985 23.7367 19.2945 23.7333 19.0817C23.9051 18.8186 24.0773 18.5397 24.2576 18.297C24.3191 18.2144 24.3227 18.2979 24.3343 18.29C24.5087 18.1781 24.4965 17.9937 24.5275 17.9402C24.8992 17.3166 25.3251 16.8918 25.6793 16.3018C25.6888 16.2823 25.6271 16.1777 25.7834 16.0945C25.7923 16.0873 25.7456 16.2822 25.876 16.0522C25.882 16.0364 25.8851 16.0239 25.8861 16.0128C25.8969 15.8557 25.8449 15.7408 25.612 15.7873C25.403 15.8278 25.1876 15.945 25.0234 16.0696C24.94 16.1325 24.7659 16.3563 24.5439 16.4224C24.5149 16.4304 24.5209 16.3847 24.4763 16.3932C24.3318 16.4224 24.3374 16.5659 24.1515 16.5788C23.9589 16.5971 23.6466 16.7412 23.3392 17.0878C23.3294 17.0986 23.3087 17.2386 23.1978 17.3306C23.0231 17.4751 22.7662 17.6724 22.5887 17.8313C22.5032 17.9078 22.5971 17.9028 22.5829 17.9168C22.0365 18.45 21.6037 18.7835 20.9992 19.3376C20.8881 19.4392 20.6359 19.7987 20.3868 19.9592C20.112 20.1378 20.1385 19.6989 19.6705 20.2743C19.4821 20.5072 19.4858 21.0286 18.985 21.2884C18.8014 21.5047 18.6114 21.7157 18.4292 21.9164C17.9412 22.4544 17.4561 22.9748 17.0348 23.5977C17.0088 23.636 16.9992 23.8157 16.9329 23.9011C16.8327 24.0297 16.7421 24.0718 16.6704 24.1636C16.371 24.5457 16.1494 24.9348 15.8863 25.3203C15.7862 25.468 15.7793 25.3882 15.6614 25.5649C15.5438 25.7424 15.5232 25.8956 15.3453 26.1234C15.2113 26.295 14.9847 26.4127 14.8238 26.6524C14.9305 26.7288 14.8275 26.897 14.6772 27.2175C14.6487 27.2785 14.7246 27.2401 14.7131 27.2702C14.6952 27.3179 14.6699 27.3603 14.6439 27.3997C14.6425 27.402 14.6377 27.4083 14.6359 27.4103C14.581 27.4646 14.5242 27.5132 14.4832 27.5795C14.467 27.6057 14.4985 27.6374 14.487 27.6605C14.3907 27.8585 14.0776 28.0368 14.0238 28.0664C13.8175 28.1822 13.7848 28.2976 13.6431 28.4028C13.5023 28.5068 13.6622 28.3004 13.5077 28.4325C13.1879 28.706 12.8072 29.0884 12.5018 29.3866C12.3806 29.5054 12.5049 29.4665 12.4885 29.4845C12.2484 29.7424 11.952 29.9507 11.9015 30.1734C11.5118 30.1359 11.7723 30.3441 11.3897 30.6714C11.3597 30.6974 11.2173 30.6379 11.3042 30.5101C11.3919 30.3818 11.5839 30.2435 11.7077 30.0682C11.7366 30.0266 11.8416 29.7254 11.8637 29.6917C12.0356 29.4276 12.22 29.5516 12.2398 29.5485C12.4607 29.5102 12.6075 29.1602 12.666 29.0885C12.9343 28.7598 13.2104 28.531 13.4355 28.2587C13.5827 28.0807 13.4974 27.9646 13.6262 27.8399C13.9483 27.5268 14.189 27.4401 14.3993 27.1901L14.3666 27.2335C14.4164 27.1396 14.4607 27.0262 14.4951 26.8847C14.526 26.7609 14.3298 26.786 14.6588 26.4728C14.6798 26.4524 14.9428 26.2312 14.9813 26.0337C14.9861 26.0089 14.947 25.986 14.96 25.9575C15.0496 25.7653 15.154 25.6662 15.2628 25.4638C15.3716 25.2615 15.5015 25.0163 15.6615 24.8078C15.7582 24.6812 15.9432 24.5627 16.0027 24.514C16.1738 24.3732 16.2267 24.1332 16.3637 24.0682C16.5006 24.0043 16.436 24.277 16.6789 24.027C16.5922 23.9465 16.5132 23.8503 16.4306 23.7631C16.8921 23.1524 17.3964 22.5914 17.8946 22.0103C17.9567 21.9378 17.8447 21.97 17.9105 21.8909C17.9817 21.8055 18.0535 21.726 18.1273 21.6473C18.3317 21.4298 18.549 21.2237 18.7612 20.9768C18.987 20.7142 19.197 20.397 19.4371 20.1261C19.686 20.0626 20.0279 19.6505 20.3121 19.3874C20.4118 19.2948 20.4303 19.3272 20.5072 19.268C20.7973 19.0447 20.5927 19.0787 20.651 18.9956C20.9033 18.6401 21.1162 18.8083 21.4777 18.4582C21.4971 18.4393 21.6368 18.1128 21.6652 18.0748C21.8368 17.8374 21.7341 18.0791 21.8731 17.9659C22.1276 17.7597 22.3202 17.6321 22.58 17.3488C22.6582 17.2638 22.7998 17.0228 23.0153 16.9324C23.0431 16.9208 23.0615 16.9674 23.0809 16.9547C23.4319 16.7226 23.3439 16.6042 23.5049 16.411C23.661 16.2216 24.0251 16.0784 24.1082 16.0563C24.3169 16.0007 23.9999 16.1749 23.9982 16.1868C23.9502 16.3345 24.1625 16.1553 24.3334 16.0462C24.4448 16.1454 24.6772 15.9797 24.5192 15.9286C24.5019 15.9226 24.3735 16.0259 24.3334 16.0462C24.4075 15.8213 24.6667 15.6168 25.0724 15.562C25.2754 15.5528 25.0928 15.6384 25.6664 15.4802C25.8176 15.4622 25.9008 15.4652 25.9699 15.4616C26.0297 15.4607 26.1613 15.4693 26.28 15.667C26.3521 15.8059 26.3628 15.8986 26.3682 16.0146C26.3452 16.3363 26.2266 16.4095 26.162 16.5148C26.087 16.6124 26.0139 16.6952 25.9404 16.7796C25.7935 16.9474 25.6504 17.1114 25.5388 17.272C25.4429 17.4104 25.5842 17.3122 25.5212 17.4068C25.3564 17.6558 25.1684 17.8495 25.0162 18.108C25.002 18.1321 25.0882 18.1084 25.0345 18.188C24.6414 18.7748 24.2732 19.2811 23.8814 19.9154C23.6912 20.2224 23.3854 20.7952 23.193 21.1126C22.8563 21.6651 22.3848 22.3275 22.1361 22.8183C21.9689 23.1467 22.062 23.0982 22.0211 23.2538C21.9412 23.5564 21.5719 23.951 21.518 24.0068C21.5166 24.0077 21.6531 23.7271 21.5479 23.8591C21.4475 23.9149 21.5194 24.0036 21.518 24.0068C21.5055 24.0195 21.4567 24.0995 21.3965 24.2037C21.2916 24.3852 21.1546 24.633 21.1233 24.7056C21.0966 24.7676 21.1626 24.7606 21.1478 24.7924C20.7916 25.5534 20.4006 26.2965 19.9664 27.0271C19.9582 27.0397 19.9157 26.9903 19.8969 27.0203C19.6359 27.435 19.5458 27.7497 19.3873 28.1234C19.2263 28.5013 19.0561 28.7723 18.8461 28.9303C18.7093 29.1991 18.4497 29.5615 18.2999 29.7668C18.1493 29.9737 18.2358 30.0619 18.2267 30.0825C17.9458 30.7236 17.6886 31.0327 17.3168 31.6498C17.1368 31.9484 16.8128 32.5343 16.6329 32.8636C16.4918 33.1225 16.3819 33.2528 16.2553 33.5C16.2386 33.5326 16.303 33.5281 16.2991 33.5387C16.2003 33.8279 16.1631 33.6374 16.1118 33.6781C15.921 33.8331 15.8125 33.9272 15.6486 34.2756C15.6079 34.3607 15.6388 34.6701 15.5596 34.8214C15.4629 35.0071 15.4471 34.9044 15.3449 35.1032C15.3359 35.1204 15.3747 35.1361 15.3016 35.2522C15.0875 35.5923 14.8555 35.9473 14.6257 36.2996C14.4681 36.5423 14.1511 36.6333 13.8955 36.4976C13.6784 36.381 13.4605 36.2659 13.2447 36.1561C13.165 36.1154 13.2369 36.2262 13.1212 36.1683C12.6932 35.9541 12.2359 35.7176 11.8109 35.4808C11.7648 35.4563 11.655 35.3698 11.6219 35.3293C11.5451 35.2309 11.4593 35.1189 11.3881 35.0224C11.2992 34.9024 11.3944 34.9459 11.3847 34.9127C11.3217 34.7068 11.0588 34.574 11.0261 34.5374C10.2948 33.7302 9.85846 33.0097 9.13852 32.1652C9.09936 32.1199 8.71323 31.8287 8.67479 31.5961C8.67204 31.5804 8.63719 31.3489 8.46645 31.2501C8.45581 31.2439 8.48665 31.3812 8.35684 31.1989C8.22708 31.0167 7.98047 30.7504 7.84989 30.464C7.80866 30.3736 7.76368 30.122 7.52132 29.9368C7.5054 29.926 7.07835 29.6734 7.10207 29.4616C7.10642 29.427 7.24101 29.3642 6.98338 29.1212C6.93331 29.0735 6.97466 29.1934 6.8581 29.0578C6.68271 28.8548 6.51521 28.5286 6.28331 28.2787C6.24219 28.2348 6.02357 28.0701 5.9888 27.8558C5.98483 27.8305 6.02637 27.8404 6.02461 27.8041C6.02438 27.7936 6.02034 27.7792 6.01001 27.7585C5.78901 27.3182 5.51176 26.898 5.2948 26.4445C5.21963 26.2869 5.33312 26.3259 5.26133 26.155C5.18637 25.9786 5.02906 25.6561 4.90094 25.5011C4.77673 25.3532 4.76717 25.5971 4.61894 25.3517C3.9705 24.276 3.44566 23.1523 2.88034 22.0328C2.79681 21.8669 2.82663 22.0247 2.70115 21.7815C2.23324 20.8845 1.43618 19.3217 1.19123 18.4537C0.995501 17.7654 1.38314 18.5686 1.21239 18.0587C1.12648 17.8018 0.895529 17.5979 0.866702 17.5298C0.617382 16.9431 0.535181 16.517 0.452364 15.8581C0.440876 15.7201 0.387099 15.8591 0.380231 15.7398C0.380578 15.506 0.365412 15.2471 0.608158 14.8865C0.729796 14.7139 0.949268 14.5689 1.14957 14.522C1.32262 14.4752 1.51885 14.4851 1.6236 14.4996C1.83629 14.533 1.83639 14.4921 1.98757 14.5429C2.07687 14.5753 2.16361 14.6133 2.25013 14.6563C2.64133 14.864 2.7817 15.0903 2.9338 15.3174C2.95045 15.3445 2.77277 15.2138 2.93503 15.4204C3.18956 15.7545 3.39562 16.1862 3.64828 16.5394C3.68629 16.5925 3.72886 16.6065 3.77102 16.6428C3.81258 16.6792 3.85733 16.743 3.89163 16.8828C3.90533 16.9421 3.76314 16.9355 4.00739 17.1767C4.0493 17.2158 4.42002 17.6473 4.44275 17.9268C4.45032 18.0026 4.42882 18.2029 4.50748 18.3383C4.5182 18.3558 4.53579 18.2582 4.59199 18.3697C4.79146 18.7686 4.97448 19.1969 5.17619 19.6047C5.2308 19.715 5.20932 19.5248 5.28848 19.6886C5.50465 20.1359 5.74668 20.7051 5.93441 21.1538C6.00277 21.3177 5.90759 21.2266 5.90823 21.2405C5.91913 21.4666 6.07658 21.5319 6.11127 21.5903C6.33295 21.9694 6.42278 22.2845 6.60839 22.638C6.66011 22.7368 6.67524 22.6418 6.68927 22.6597C6.83118 22.8443 6.66881 22.7341 6.72097 22.8671C6.86855 23.2431 7.07216 23.6483 7.25723 24.0047C7.32666 24.1383 7.30806 23.9583 7.36993 24.0789C7.73393 24.785 8.10399 25.5222 8.43145 26.2251C8.49363 26.3587 8.40741 26.2993 8.41172 26.3316C8.44269 26.5599 8.67569 26.7733 8.71911 26.8337C8.91329 27.1018 8.92994 27.2252 9.07192 27.474C9.35437 27.9679 9.6493 28.5024 9.95287 29.0577C10.1697 29.4532 10.385 29.8505 10.6022 30.1681C10.7048 30.322 10.8352 30.4661 10.8667 30.4848C10.8866 30.4977 10.7933 30.4374 10.6551 30.478C10.5285 30.523 10.5336 30.5621 10.5495 30.5346C10.9177 29.8126 11.0264 28.5513 11.126 27.513C11.1591 27.1185 11.1862 26.6905 11.2053 26.2582C11.21 26.1551 11.1396 26.2559 11.1427 26.1667C11.185 25.0145 11.2454 23.8865 11.2543 22.7283C11.2551 22.6343 11.1903 22.7684 11.1894 22.6173C11.1873 22.3061 11.1988 21.9099 11.2244 21.5945C11.2368 21.4398 11.2859 21.6486 11.2972 21.4927C11.3236 21.1336 11.3344 20.7419 11.3297 20.3743C11.3276 20.2165 11.2612 20.4536 11.2633 20.2485C11.2765 18.8481 11.2761 17.4769 11.3641 16.0622C11.3701 15.9653 11.4987 15.8806 11.4749 15.6743C11.4394 15.6587 11.3975 15.6594 11.3595 15.6525C11.3464 13.6149 11.3887 11.5962 11.3915 9.55288C11.3916 9.46759 11.3239 9.61499 11.3237 9.4501C11.3228 8.48383 11.3017 7.54245 11.3682 6.55373C11.3747 6.45494 11.4943 6.51068 11.476 6.21768C11.4737 6.18106 11.4651 5.9553 11.4514 5.79111C11.4455 5.71573 11.4386 5.65173 11.4309 5.6175C11.427 5.60216 11.3711 5.68193 11.3696 5.54083C11.3618 4.72719 11.3771 3.86984 11.419 3.05478C11.4259 2.9227 11.4839 3.06361 11.4894 2.97015C11.528 2.30774 11.4925 1.5797 11.5726 0.940521C11.6296 0.506417 11.7242 0.676148 11.8415 0.450824C11.8561 0.421618 11.89 0.143942 11.9558 0.137399C12.1062 0.136012 12.246 0.276929 12.4093 0.257255C12.4239 0.259361 12.4486 0.16522 12.4386 0.210286C12.4259 0.242866 12.4 0.272673 12.4183 0.266725C12.4213 0.272436 12.4327 0.295678 12.4924 0.231746C12.5201 0.152141 12.5029 0.359056 12.5296 0.424201C12.545 0.466152 12.611 0.402209 12.6285 0.481766C12.646 0.564972 12.5896 0.652 12.611 0.79569C12.6332 0.942065 12.7033 0.880679 12.7005 1.16901ZM17.6245 30.6899C17.4571 30.8654 17.6211 31 17.7052 30.7545C17.709 30.7424 17.6331 30.6807 17.6245 30.6899ZM17.5218 22.7013C17.7882 22.5249 17.8218 22.2778 17.6274 22.3963C17.431 22.5183 17.4405 22.7558 17.5218 22.7013ZM15.6794 25.3002C15.9376 25.042 15.7236 24.8286 15.5594 25.1841C15.5498 25.2048 15.6644 25.3154 15.6794 25.3002ZM11.823 1.50758C11.8258 1.50199 11.8338 1.31409 11.8313 1.31058C11.7677 1.20796 11.7516 1.58536 11.823 1.50758ZM13.9715 27.9013C14.0782 27.8498 14.2662 27.5866 14.1347 27.6516C14.0291 27.7042 13.8392 27.9655 13.9715 27.9013ZM9.85771 32.2082C9.85768 32.2031 9.77741 32.0956 9.76505 32.1084C9.72585 32.1506 9.85402 32.2887 9.85771 32.2082ZM10.3597 31.8294C10.847 31.2226 11.3099 30.9401 10.7902 31.6428C10.6939 31.7672 10.9251 31.3218 10.7904 31.4715C10.5463 31.7421 10.5149 32.0272 10.2148 32.2618C10.1616 32.3036 10.3329 31.8639 10.3603 31.8282C10.3601 31.8286 10.3599 31.829 10.3597 31.8294ZM17.3389 30.6815C17.3341 30.6844 17.2382 30.8448 17.2385 30.8498C17.2453 30.9706 17.4384 30.6477 17.3389 30.6815ZM5.58486 25.5858C5.58608 25.5761 5.37498 25.1875 5.36523 25.1809C5.15905 25.0349 5.58 25.8111 5.58486 25.5858ZM23.4015 19.5967C23.4495 19.3907 23.5773 19.1711 23.7327 19.0825C23.6231 19.2477 23.5102 19.4278 23.4015 19.5967Z" fill="white"/>
</svg>
